<?xml version="1.0" encoding="iso-8859-1"?>
<!-- Generator: Adobe Illustrator 19.0.0, SVG Export Plug-In . SVG Version: 6.00 Build 0)  -->
<svg version="1.1" id="Capa_1" xmlns="http://www.w3.org/2000/svg" xmlns:xlink="http://www.w3.org/1999/xlink" x="0px" y="0px"
	 viewBox="0 0 368 368" style="enable-background:new 0 0 368 368;" xml:space="preserve">
<g>
	<g>
		<g>
			<path d="M367.107,244.328c-1.368-2.664-4.112-4.336-7.112-4.336h-40V16c0-8.824-7.176-16-16-16h-48c-8.824,0-16,7.176-16,16
				v223.992h-40c-3,0-5.744,1.672-7.112,4.336c-1.376,2.664-1.144,5.872,0.6,8.312l80.016,112.008
				c1.496,2.104,3.92,3.352,6.504,3.352c2.584,0,5.008-1.248,6.504-3.352l80-112.008C368.251,250.2,368.483,246.992,367.107,244.328
				z M280.003,346.232l-64.456-90.24h32.456c4.424,0,8-3.584,8-8V16h48v231.992c0,4.416,3.576,8,8,8h32.456L280.003,346.232z"/>
			<path d="M94.515,3.352c-3.008-4.208-10.016-4.208-13.024,0l-80,112.008c-1.736,2.44-1.976,5.648-0.6,8.312
				s4.112,4.336,7.112,4.336h40V352c0,8.824,7.176,16,16,16h48c8.824,0,16-7.176,16-16V128.008h40c3,0,5.744-1.672,7.112-4.336
				s1.136-5.872-0.6-8.312L94.515,3.352z M120.003,112.008c-4.416,0-8,3.584-8,8V352h-48V120.008c0-4.416-3.584-8-8-8H23.547
				l64.456-90.24l64.456,90.24H120.003z"/>
		</g>
	</g>
</g>
<g>
</g>
<g>
</g>
<g>
</g>
<g>
</g>
<g>
</g>
<g>
</g>
<g>
</g>
<g>
</g>
<g>
</g>
<g>
</g>
<g>
</g>
<g>
</g>
<g>
</g>
<g>
</g>
<g>
</g>
</svg>
